<?xml version="1.0" encoding="utf-8"?>
<svg xmlns="http://www.w3.org/2000/svg" viewBox="0 0 300 130" xmlns:bx="https://boxy-svg.com">
  <defs>
    <bx:export>
      <bx:file format="svg"/>
    </bx:export>
    <marker id="marker-0" viewBox="0 0 100 100" overflow="visible" orient="auto" refX="50" refY="50" bx:pinned="true"/>
  </defs>
  <rect x="5.357" y="1.524" width="95.247" height="127.384" style="fill: rgb(216, 216, 216); stroke: rgb(0, 0, 0);"/>
  <rect x="197.966" y="2.186" width="97.066" height="126.437" style="fill: rgb(216, 216, 216); stroke: rgb(0, 0, 0);"/>
  <text style="fill: rgb(51, 51, 51); font-family: Arial, sans-serif; font-size: 14px; text-anchor: middle; white-space: pre;" transform="matrix(1, 0, 0, 1, 44.616524, -41.478291)"><tspan x="201.364" y="60.58">ImageSource</tspan><tspan x="201.364" dy="1em">​</tspan><tspan>process</tspan></text>
  <text style="fill: rgb(51, 51, 51); font-family: Arial, sans-serif; font-size: 14px; text-anchor: middle; white-space: pre;" transform="matrix(1, 0, 0, 1, -26.679268, -43.7239)"><tspan x="80.154" y="62.073">ImageClient</tspan><tspan x="80.154" dy="1em">​</tspan><tspan>process</tspan></text>
  <rect x="10.463" y="83.231" width="85.93" height="41.785" style="fill: rgb(216, 216, 216); stroke: rgb(0, 0, 0);"/>
  <rect x="14.316" y="107.423" width="275.17" height="14.144" style="fill: rgb(216, 216, 216); stroke: rgb(0, 0, 0);"/>
  <text style="fill: rgb(51, 51, 51); font-family: Arial, sans-serif; font-size: 9px; text-anchor: middle; white-space: pre;" x="149.874" y="117.563">Shared-mem segment with pixel data</text>
  <text style="fill: rgb(51, 51, 51); font-family: Arial, sans-serif; font-size: 9px; text-anchor: middle; white-space: pre;" transform="matrix(1, 0, 0, 1, -80.425896, -12.372573)"><tspan x="135.239" y="106.655">ImageSource</tspan><tspan x="135.239" dy="1em">​</tspan><tspan>Proxy DLL</tspan></text>
  <path style="fill: rgb(216, 216, 216); stroke: rgb(0, 0, 0);" d="M 161.487 38.302 L 197.628 38.728"/>
  <ellipse style="fill: rgb(216, 216, 216); stroke: rgb(0, 0, 0);" cx="160.7" cy="38.319" rx="6.53" ry="7.082"/>
  <text style="fill: rgb(51, 51, 51); font-family: Arial, sans-serif; font-size: 8px; white-space: pre;" transform="matrix(1, 0, 0, 1, 27.395983, -51.314503)"><tspan x="119.027" y="69.966">IImage</tspan><tspan x="119.027" dy="1em">​</tspan><tspan>Handle</tspan></text>
  <path style="fill: rgb(216, 216, 216); stroke: rgb(0, 0, 0); stroke-width: 1;" d="M 100.973 38.527 L 138.807 38.745"/>
  <path style="stroke: rgb(0, 0, 0); fill: none; transform-box: fill-box; transform-origin: 50% 50%;" d="M 139.593 46.735 C 146.972 46.735 149.994 44.591 150.078 37.625 C 150.148 31.764 143.343 29.679 139.229 30.588" transform="matrix(-1, 0, 0, -1, -0.000012, -0.000001)"/>
  <path style="fill: rgb(216, 216, 216); stroke: rgb(0, 0, 0);" d="M 291.382 283.276 C 291.382 283.276 291.382 283.276 291.382 283.276"/>
  <rect x="112.538" y="51.875" width="74.741" height="51.65" style="fill: rgb(216, 216, 216); stroke: rgb(0, 0, 0);"/>
  <text style="fill: rgb(51, 51, 51); font-family: Arial, sans-serif; font-size: 8px; white-space: pre;" transform="matrix(1, 0, 0, 1, -80.280128, -50.074638)"><tspan x="194.539" y="110.068">struct Image2d {</tspan><tspan x="194.53900146484375" dy="1em">​</tspan><tspan> double time;</tspan><tspan x="194.53900146484375" dy="1em">​</tspan><tspan> uint      format;</tspan><tspan x="194.53900146484375" dy="1em">​</tspan><tspan> ushort  dims[2];</tspan><tspan x="194.53900146484375" dy="1em">​</tspan><tspan> SAFEARRAY* data;</tspan><tspan x="194.53900146484375" dy="1em">​</tspan><tspan>};</tspan><tspan x="194.53900146484375" dy="1em">​</tspan></text>
  <path d="M 22.566 18.368 H 33.385 L 33.385 14.277 L 38.003 19.732 L 33.385 25.188 L 33.385 21.096 H 22.566 V 18.368 Z" bx:shape="arrow 22.566 14.277 15.437 10.911 2.728 4.618 0 1@dbdb4f2c" style="fill: rgb(216, 216, 216); stroke: rgb(0, 0, 0);" transform="matrix(-0.271374, 0.962474, -0.962474, -0.271374, 199.701202, 78.525833)"/>
</svg>