<?xml version="1.0" encoding="utf-8"?>
<svg xmlns="http://www.w3.org/2000/svg" viewBox="0 0 300 140" xmlns:bx="https://boxy-svg.com">
  <defs>
    <bx:export>
      <bx:file format="svg"/>
    </bx:export>
  </defs>
  <rect x="5.357" y="1.524" width="101.779" height="136.954" style="fill: rgb(216, 216, 216); stroke: rgb(0, 0, 0);"/>
  <rect x="192.643" y="2.186" width="102.389" height="136.423" style="fill: rgb(216, 216, 216); stroke: rgb(0, 0, 0);"/>
  <text style="fill: rgb(51, 51, 51); font-family: Arial, sans-serif; text-anchor: middle; white-space: pre;" transform="matrix(1, 0, 0, 1, 41.955235, -42.929905)"><tspan x="201.364" y="60.58">ImageSource</tspan><tspan x="201.364" dy="1em">​</tspan><tspan>process</tspan></text>
  <text style="fill: rgb(51, 51, 51); font-family: Arial, sans-serif; text-anchor: middle; white-space: pre;" transform="matrix(1, 0, 0, 1, -22.324429, -43.965836)"><tspan x="80.154" y="62.073">ImageClient</tspan><tspan x="80.154" dy="1em">​</tspan><tspan>process</tspan></text>
  <rect x="10.463" y="83.231" width="93.43" height="52.395" style="fill: rgb(216, 216, 216); stroke: rgb(0, 0, 0);"/>
  <rect x="14.316" y="117.358" width="275.17" height="16.224" style="fill: rgb(216, 216, 216); stroke: rgb(0, 0, 0);"/>
  <text style="fill: rgb(51, 51, 51); font-family: Arial, sans-serif; font-size: 11px; text-anchor: middle; white-space: pre;" x="150.358" y="129.714">Shared-mem segment with pixel data</text>
  <text style="fill: rgb(51, 51, 51); font-family: Arial, sans-serif; font-size: 11px; text-anchor: middle; white-space: pre;" transform="matrix(1, 0, 0, 1, -77.420998, -8.492209)"><tspan x="135.239" y="106.655">ImageSource</tspan><tspan x="135.239" dy="1em">​</tspan><tspan>Proxy DLL</tspan></text>
  <path style="fill: rgb(216, 216, 216); stroke: rgb(0, 0, 0);" d="M 164.487 35.302 L 192.644 35.728"/>
  <ellipse style="fill: rgb(216, 216, 216); stroke: rgb(0, 0, 0);" cx="162.14" cy="35.943" rx="7.466" ry="8.746"/>
  <text style="fill: rgb(51, 51, 51); font-family: Arial, sans-serif; font-size: 10px; white-space: pre;" transform="matrix(1, 0, 0, 1, 23.476627, -57.84676)"><tspan x="119.027" y="69.966">IImage</tspan><tspan x="119.027" dy="1em">​</tspan><tspan>Handle</tspan></text>
  <path style="fill: rgb(216, 216, 216); stroke: rgb(0, 0, 0); stroke-width: 1;" d="M 108.812 35.943 L 139.102 36.369"/>
  <path style="stroke: rgb(0, 0, 0); fill: none; transform-box: fill-box; transform-origin: 50% 50%;" d="M 139.743 46.648 C 148.395 46.648 151.939 43.986 152.037 35.335 C 152.12 28.058 144.14 25.469 139.316 26.597" transform="matrix(-1, 0, 0, -1, -0.000009, -0.000006)"/>
  <path style="fill: rgb(216, 216, 216); stroke: rgb(0, 0, 0);" d="M 291.382 283.276 C 291.382 283.276 291.382 283.276 291.382 283.276"/>
  <rect x="108.667" y="55.069" width="82.483" height="56.005" style="fill: rgb(216, 216, 216); stroke: rgb(0, 0, 0);"/>
  <text style="fill: rgb(51, 51, 51); font-family: Arial, sans-serif; font-size: 9px; white-space: pre;" transform="matrix(1, 0, 0, 1, -84.634964, -46.881088)"><tspan x="194.539" y="110.068">struct Image2d {</tspan><tspan x="194.53900146484375" dy="1em">​</tspan><tspan> double time</tspan><tspan x="194.53900146484375" dy="1em">​</tspan><tspan> uint      format</tspan><tspan x="194.53900146484375" dy="1em">​</tspan><tspan> ushort  dims[2]</tspan><tspan x="194.53900146484375" dy="1em">​</tspan><tspan> SAFEARRAY* data</tspan><tspan x="194.53900146484375" dy="1em">​</tspan><tspan>}</tspan><tspan x="194.53900146484375" dy="1em">​</tspan></text>
</svg>